name ./resultDataOpenSim/trcMotMarkerGrf/sub10/grf-13-08.mot
datacolumns 19
datarows 27
range 1.05600000 1.16000000
endheader

                time	     ground_force_vx	     ground_force_vy	     ground_force_vz	     ground_force_px	     ground_force_py	     ground_force_pz	   l_ground_force_vx	   l_ground_force_vy	   l_ground_force_vz	   l_ground_force_px	   l_ground_force_py	   l_ground_force_pz	     ground_torque_x	     ground_torque_y	     ground_torque_z	   l_ground_torque_x	   l_ground_torque_y	   l_ground_torque_z	
          1.05600000	          0.00000000	          0.00000000	          0.00000000	          0.00000000	          0.00000000	          0.00000000	        -13.96009173	        846.07875494	         26.02270454	          0.06413354	         -0.05000100	         -0.06392831	          0.00000000	          0.00000000	          0.00000000	          0.00000000	         -7.66487977	          0.00000000	
          1.06000000	          0.00000000	          0.00000000	          0.00000000	          0.00000000	          0.00000000	          0.00000000	        -10.62042520	        849.15708750	         26.74036186	          0.06447819	         -0.05000100	         -0.06373500	          0.00000000	          0.00000000	          0.00000000	          0.00000000	         -7.70277443	          0.00000000	
          1.06400000	          0.00000000	          0.00000000	          0.00000000	          0.00000000	          0.00000000	          0.00000000	         -7.28339080	        852.20674743	         27.46034275	          0.06484644	         -0.05000100	         -0.06353918	          0.00000000	          0.00000000	          0.00000000	          0.00000000	         -7.73553904	          0.00000000	
          1.06800000	          0.00000000	          0.00000000	          0.00000000	          0.00000000	          0.00000000	          0.00000000	         -3.93333431	        855.29229896	         28.11667707	          0.06524016	         -0.05000100	         -0.06333446	          0.00000000	          0.00000000	          0.00000000	          0.00000000	         -7.76856563	          0.00000000	
          1.07200000	          0.00000000	          0.00000000	          0.00000000	          0.00000000	          0.00000000	          0.00000000	         -0.55486475	        858.38442622	         28.65103467	          0.06565118	         -0.05000100	         -0.06311871	          0.00000000	          0.00000000	          0.00000000	          0.00000000	         -7.80569279	          0.00000000	
          1.07600000	          0.00000000	          0.00000000	          0.00000000	          0.00000000	          0.00000000	          0.00000000	          2.85722185	        861.41661460	         29.04418061	          0.06606258	         -0.05000100	         -0.06289576	          0.00000000	          0.00000000	          0.00000000	          0.00000000	         -7.84850805	          0.00000000	
          1.08000000	          0.00000000	          0.00000000	          0.00000000	          0.00000000	          0.00000000	          0.00000000	          6.29711825	        864.35396142	         29.32457828	          0.06645796	         -0.05000100	         -0.06267448	          0.00000000	          0.00000000	          0.00000000	          0.00000000	         -7.89629581	          0.00000000	
          1.08400000	          0.00000000	          0.00000000	          0.00000000	          0.00000000	          0.00000000	          0.00000000	          9.76280945	        867.18809385	         29.55216239	          0.06682139	         -0.05000100	         -0.06246671	          0.00000000	          0.00000000	          0.00000000	          0.00000000	         -7.94661540	          0.00000000	
          1.08800000	          0.00000000	          0.00000000	          0.00000000	          0.00000000	          0.00000000	          0.00000000	         13.27666612	        869.90278873	         29.79266235	          0.06712624	         -0.05000100	         -0.06228790	          0.00000000	          0.00000000	          0.00000000	          0.00000000	         -7.99618183	          0.00000000	
          1.09200000	          0.00000000	          0.00000000	          0.00000000	          0.00000000	          0.00000000	          0.00000000	         16.89196688	        872.48971618	         30.09303346	          0.06733871	         -0.05000100	         -0.06215002	          0.00000000	          0.00000000	          0.00000000	          0.00000000	         -8.04163514	          0.00000000	
          1.09600000	          0.00000000	          0.00000000	          0.00000000	          0.00000000	          0.00000000	          0.00000000	         20.67332257	        874.96837123	         30.46311129	          0.06744185	         -0.05000100	         -0.06204970	          0.00000000	          0.00000000	          0.00000000	          0.00000000	         -8.07989540	          0.00000000	
          1.10000000	          0.00000000	          0.00000000	          0.00000000	          0.00000000	          0.00000000	          0.00000000	         24.66195949	        877.35525244	         30.87110307	          0.06743835	         -0.05000100	         -0.06198516	          0.00000000	          0.00000000	          0.00000000	          0.00000000	         -8.10803728	          0.00000000	
          1.10400000	          0.00000000	          0.00000000	          0.00000000	          0.00000000	          0.00000000	          0.00000000	         28.85892640	        879.65081210	         31.25910661	          0.06735138	         -0.05000100	         -0.06195478	          0.00000000	          0.00000000	          0.00000000	          0.00000000	         -8.12289134	          0.00000000	
          1.10800000	          0.00000000	          0.00000000	          0.00000000	          0.00000000	          0.00000000	          0.00000000	         33.25380406	        881.87554867	         31.57338025	          0.06722486	         -0.05000100	         -0.06194837	          0.00000000	          0.00000000	          0.00000000	          0.00000000	         -8.12072045	          0.00000000	
          1.11200000	          0.00000000	          0.00000000	          0.00000000	          0.00000000	          0.00000000	          0.00000000	         37.86936668	        884.06790844	         31.79360247	          0.06708253	         -0.05000100	         -0.06195862	          0.00000000	          0.00000000	          0.00000000	          0.00000000	         -8.09725633	          0.00000000	
          1.11600000	          0.00000000	          0.00000000	          0.00000000	          0.00000000	          0.00000000	          0.00000000	         42.75667677	        886.20143207	         31.94657823	          0.06692824	         -0.05000100	         -0.06198160	          0.00000000	          0.00000000	          0.00000000	          0.00000000	         -8.04822893	          0.00000000	
          1.12000000	          0.00000000	          0.00000000	          0.00000000	          0.00000000	          0.00000000	          0.00000000	         47.95279955	        888.11859225	         32.09426436	          0.06677499	         -0.05000100	         -0.06200982	          0.00000000	          0.00000000	          0.00000000	          0.00000000	         -7.97033967	          0.00000000	
          1.12400000	          0.00000000	          0.00000000	          0.00000000	          0.00000000	          0.00000000	          0.00000000	         53.46009545	        889.58644002	         32.29624770	          0.06665081	         -0.05000100	         -0.06203248	          0.00000000	          0.00000000	          0.00000000	          0.00000000	         -7.86240048	          0.00000000	
          1.12800000	          0.00000000	          0.00000000	          0.00000000	          0.00000000	          0.00000000	          0.00000000	         59.24416830	        890.40229548	         32.56950986	          0.06657572	         -0.05000100	         -0.06203592	          0.00000000	          0.00000000	          0.00000000	          0.00000000	         -7.72616743	          0.00000000	
          1.13200000	          0.00000000	          0.00000000	          0.00000000	          0.00000000	          0.00000000	          0.00000000	         65.23923571	        890.42104867	         32.87533792	          0.06656261	         -0.05000100	         -0.06200625	          0.00000000	          0.00000000	          0.00000000	          0.00000000	         -7.56641359	          0.00000000	
          1.13600000	          0.00000000	          0.00000000	          0.00000000	          0.00000000	          0.00000000	          0.00000000	         71.37874118	        889.53242984	         33.13689342	          0.06661779	         -0.05000100	         -0.06193716	          0.00000000	          0.00000000	          0.00000000	          0.00000000	         -7.39007052	          0.00000000	
          1.14000000	          0.00000000	          0.00000000	          0.00000000	          0.00000000	          0.00000000	          0.00000000	         77.63311293	        887.64321963	         33.26358915	          0.06673664	         -0.05000100	         -0.06183519	          0.00000000	          0.00000000	          0.00000000	          0.00000000	         -7.20466172	          0.00000000	
          1.14400000	          0.00000000	          0.00000000	          0.00000000	          0.00000000	          0.00000000	          0.00000000	         84.01838569	        884.64907496	         33.16680454	          0.06691222	         -0.05000100	         -0.06171500	          0.00000000	          0.00000000	          0.00000000	          0.00000000	         -7.01652154	          0.00000000	
          1.14800000	          0.00000000	          0.00000000	          0.00000000	          0.00000000	          0.00000000	          0.00000000	         90.56637413	        880.43023407	         32.77470969	          0.06714288	         -0.05000100	         -0.06159182	          0.00000000	          0.00000000	          0.00000000	          0.00000000	         -6.82933520	          0.00000000	
          1.15200000	          0.00000000	          0.00000000	          0.00000000	          0.00000000	          0.00000000	          0.00000000	         97.27341547	        874.90614423	         32.04962243	          0.06743052	         -0.05000100	         -0.06147435	          0.00000000	          0.00000000	          0.00000000	          0.00000000	         -6.64338203	          0.00000000	
          1.15600000	          0.00000000	          0.00000000	          0.00000000	          0.00000000	          0.00000000	          0.00000000	        104.07694011	        868.08433190	         30.99882175	          0.06776950	         -0.05000056	         -0.06136102	          0.00000000	          0.00000000	          0.00000000	          0.00000000	         -6.45562293	          0.00000000	
          1.16000000	          0.00000000	          0.00000000	          0.00000000	          0.00000000	          0.00000000	          0.00000000	        110.88889975	        860.02827184	         29.67415181	          0.06813167	         -0.05000000	         -0.06125112	          0.00000000	          0.00000000	          0.00000000	          0.00000000	         -6.26057039	          0.00000000	
